<svg width="112" height="148" viewBox="0 0 112 148" fill="none" xmlns="http://www.w3.org/2000/svg">
<mask id="mask0_1281_3396" style="mask-type:alpha" maskUnits="userSpaceOnUse" x="0" y="0" width="112" height="148">
<path d="M79.1405 85.3195H43.8362V32.363C43.8362 31.5828 43.5262 30.8342 42.9746 30.2826C42.423 29.7309 41.6743 29.421 40.8942 29.421H31.3324C23.0265 29.4525 15.0713 32.7675 9.20031 38.6424C3.33071 44.5188 0.0235362 52.4777 0 60.7826V115.652C0 123.974 3.29665 131.956 9.17005 137.85C15.0423 143.745 23.012 147.072 31.3324 147.103H50.6617C58.9979 147.096 66.9898 143.779 72.8806 137.882C78.7724 131.985 82.0822 123.989 82.0822 115.653V88.2629C82.0822 87.4827 81.7723 86.734 81.2206 86.1824C80.669 85.6308 79.9204 85.3208 79.1402 85.3208L79.1405 85.3195ZM5.88238 60.7823C5.89814 54.0355 8.58272 47.5681 13.3518 42.7952C18.1195 38.0211 24.5839 35.3286 31.3311 35.305H38.0688V85.3195H5.88238V60.7823ZM76.1952 115.652C76.203 122.43 73.5158 128.933 68.7258 133.728C63.9358 138.524 57.4358 141.219 50.6587 141.219H31.3294C24.5668 141.195 18.0903 138.491 13.3188 133.698C8.54836 128.904 5.87296 122.415 5.88103 115.652V91.2042H76.1938L76.1952 115.652Z" fill="white"/>
<path d="M50.6652 29.421C49.0405 29.421 47.7231 30.7383 47.7231 32.363V77.4046C47.7231 78.1848 48.0331 78.9334 48.5847 79.485C49.1364 80.0366 49.885 80.3466 50.6652 80.3466H79.1437C79.9238 80.3466 80.6725 80.0367 81.2241 79.485C81.7757 78.9334 82.0857 78.1848 82.0857 77.4046V60.782C82.0621 52.4616 78.7431 44.4892 72.8538 38.6115C66.9643 32.7328 58.9856 29.4284 50.6652 29.4203V29.421ZM76.2016 74.4626H53.6072V35.305C59.8248 36.0327 65.5592 39.0167 69.7241 43.691C73.889 48.3653 76.1939 54.4043 76.202 60.6653L76.2016 74.4626Z" fill="white"/>
<path d="M78.5555 33.3649C79.3278 33.361 80.0672 33.055 80.6149 32.5112L96.0318 17.0943C96.6544 16.5611 97.0261 15.7927 97.0576 14.9732C97.0891 14.1549 96.7778 13.359 96.1973 12.7798C95.6181 12.2006 94.8235 11.8893 94.0039 11.9208C93.1844 11.9523 92.416 12.324 91.8828 12.9466L76.4961 28.3635C75.3548 29.5101 75.3548 31.3633 76.4961 32.5112C77.0438 33.055 77.7832 33.361 78.5555 33.3649Z" fill="white"/>
<path d="M108.856 40.3653H87.1144C85.4897 40.3653 84.1724 41.6827 84.1724 43.3073C84.1724 44.932 85.4897 46.2494 87.1144 46.2494H108.856C109.637 46.2494 110.385 45.9394 110.937 45.3878C111.489 44.8361 111.799 44.0875 111.799 43.3073C111.799 42.5272 111.489 41.7785 110.937 41.2269C110.385 40.6753 109.637 40.3653 108.856 40.3653Z" fill="white"/>
<path d="M65.6677 27.7432C66.4479 27.7432 67.1965 27.4332 67.7481 26.8816C68.2998 26.3299 68.6097 25.5813 68.6097 24.8011V2.94203C68.6097 1.31736 67.2924 0 65.6677 0C64.043 0 62.7257 1.31736 62.7257 2.94203V24.7419C62.7099 25.5326 63.012 26.297 63.5663 26.8605C64.1192 27.4252 64.877 27.7432 65.6677 27.7432Z" fill="white"/>
</mask>
<g mask="url(#mask0_1281_3396)">
<rect x="-54" y="-36" width="220" height="220" fill="white"/>
</g>
</svg>
